# xmcd CD database file
#
# Track frame offsets:
#	150
#	23775
#	46425
#	62625
#	77400
#	102975
#	122700
#	141000
#	156675
#	179775
#
# Disc length: 2700 seconds
#
# Revision: 0
# Processed by: cddbd v1.5.1PL0 Copyright (c) Steve Scherf et al.
# Submitted via: CD2WAV32(JP) R3.22
#
DISCID=8a0a8a0a
DTITLE=嘉門達夫 - ベストヒットコレクション
DYEAR=2005
DGENRE=J-POP(J)
TTITLE0=芸能人に気をつけな！
TTITLE1=言えますか？
TTITLE2=シャワー浴びてくる
TTITLE3=アソコに毛が生えた（エリーゼのために）
TTITLE4=ネコニャンニャンニャン「達夫＆伸郎バージョン」
TTITLE5=H系
TTITLE6=ときめきのワイドショー（買物ブギ）
TTITLE7=何かいいこと起こりそう
TTITLE8=アイしてりんこ　スキりんこ
TTITLE9=Do You Remember?
EXTD=
EXTT0=
EXTT1=
EXTT2=
EXTT3=
EXTT4=
EXTT5=
EXTT6=
EXTT7=
EXTT8=
EXTT9=
PLAYORDER=
